<svg width="427" height="574" viewBox="0 0 427 574" fill="none" xmlns="http://www.w3.org/2000/svg">
<g clip-path="url(#clip0_28_94)">
<path d="M365.554 90.7397H515.187C521.832 90.7397 524.599 82.2409 519.233 78.3267L424.993 9.63947C422.032 7.48354 417.904 8.02911 415.604 10.8785L360.21 79.5625C356.588 84.0551 359.786 90.7397 365.554 90.7397Z" fill="#7DD3FC"/>
<path d="M358.143 132.721L468.513 280.75C471.651 284.953 478.126 284.368 480.449 279.663L553.665 131.637C555.975 126.963 552.577 121.491 547.365 121.491H363.779C357.998 121.491 354.689 128.084 358.143 132.721Z" fill="#7DD3FC"/>
<path d="M480.449 358.785C478.125 354.081 471.651 353.493 468.512 357.7L358.13 505.785C354.679 510.411 357.985 516.995 363.756 516.995H547.365C552.574 516.995 555.975 511.523 553.665 506.849L480.449 358.785Z" fill="#7DD3FC"/>
<path d="M324.585 139.428L438.796 292.63C442.254 297.264 438.944 303.86 433.163 303.86H204.744C198.959 303.86 195.653 297.264 199.107 292.63L313.312 139.428C316.125 135.659 321.775 135.655 324.585 139.428Z" fill="#7DD3FC"/>
<path d="M204.787 334.599H433.298C439.072 334.599 442.375 341.181 438.925 345.809L324.661 499.09C321.851 502.863 316.201 502.863 313.391 499.09L199.15 345.828C195.693 341.191 199.002 334.599 204.787 334.599Z" fill="#7DD3FC"/>
<path d="M324.312 74.9704C321.564 78.3785 316.375 78.3785 313.627 74.9737L262.283 11.295C258.661 6.80568 261.859 0.127571 267.623 0.127571H370.283C376.047 0.127571 379.242 6.80239 375.627 11.2917L324.312 74.9704Z" fill="#7DD3FC"/>
<path d="M272.455 90.7397H122.819C116.177 90.7397 113.406 82.2409 118.776 78.3267L213.016 9.63947C215.974 7.48354 220.105 8.02911 222.402 10.8785L277.799 79.5625C281.417 84.0551 278.223 90.7397 272.455 90.7397Z" fill="#7DD3FC"/>
<path d="M123.847 303.86H6.43118C1.51461 303.86 -1.88031 298.947 -0.145058 294.349L50.6868 159.778C52.8559 154.03 60.8387 153.639 63.5632 159.144L130.147 293.715C132.461 298.385 129.063 303.86 123.847 303.86Z" fill="#7DD3FC"/>
<path d="M279.866 132.721L169.493 280.75C166.358 284.953 159.883 284.368 157.556 279.663L84.3437 131.637C82.0333 126.963 85.4315 121.491 90.6438 121.491H274.229C280.014 121.491 283.32 128.084 279.866 132.721Z" fill="#7DD3FC"/>
<path d="M157.556 358.785C159.883 354.081 166.358 353.493 169.496 357.7L279.866 505.764C283.32 510.402 280.01 516.995 274.229 516.995H90.6438C85.4315 516.995 82.0333 511.523 84.3437 506.849L157.556 358.785Z" fill="#7DD3FC"/>
<path d="M6.6285 334.6H124.09C129.306 334.6 132.704 340.073 130.39 344.748L63.7803 479.335C61.0558 484.84 53.0762 484.446 50.9038 478.697L0.0555597 344.11C-1.68298 339.512 1.71523 334.6 6.6285 334.6Z" fill="#7DD3FC"/>
<rect x="83.1461" y="537.312" width="469.496" height="36.5164" rx="5.21662" fill="#7DD3FC"/>
</g>
<defs>
<clipPath id="clip0_28_94">
<rect width="427" height="574" fill="white"/>
</clipPath>
</defs>
</svg>
